<?xml version="1.0" encoding="iso-8859-1"?>
<!-- Generator: Adobe Illustrator 18.1.1, SVG Export Plug-In . SVG Version: 6.00 Build 0)  -->
<svg version="1.1" id="Capa_1" xmlns="http://www.w3.org/2000/svg" xmlns:xlink="http://www.w3.org/1999/xlink" x="0px" y="0px"
	 viewBox="0 0 42.672 42.672" style="enable-background:new 0 0 42.672 42.672;" xml:space="preserve">
<g>
	<path style="fill:#010002;" d="M4.178,31.579c0.524,0.33,2.905,0.587,4.604,0.587c1.225,0,2.133-0.119,2.696-0.355
		c2.506-1.052,4.51-4.723,5.028-8.927c0.089-0.419,0.154-0.861,0.192-1.327h1.203v-0.035h8.146
		c0.207,4.754,2.373,9.125,5.147,10.289c0.562,0.236,1.47,0.355,2.697,0.355c1.697,0,4.078-0.257,4.603-0.588
		c3.158-2,4.536-7.453,4.099-16.207c-0.445-8.89-4.496-10.341-4.668-10.399l-5.349-0.025c-4.368,0-5.894,6.638-6.381,9.95h-8.294
		h-1.382c-0.045-0.666-0.182-1.451-0.451-2.198c-0.769-3.412-2.441-7.752-5.973-7.752H4.904L4.746,4.972
		C4.574,5.029,0.523,6.48,0.079,15.371C-0.358,24.125,1.021,29.578,4.178,31.579z M15.093,12.945
		c0.167,0.742,0.287,1.416,0.369,1.952h-3.561v6.66h3.714c-0.018,0.366-0.044,0.73-0.087,1.092c-0.346,1.637-1.099,2.83-2.144,3.269
		c-0.761,0.319-3.338,0.08-3.721-0.08c-1.644-1.04-2.381-4.217-2.133-9.189c0.219-4.357,1.922-5.439,2.25-5.608h3.071
		C14.065,11.04,14.727,11.955,15.093,12.945z M41.524,20.228c0,2.258-0.745,3.974-1.946,4.477c-0.604,0.255-2.756,0.062-3.071-0.062
		c-1.363-0.861-1.973-3.522-1.766-7.693c0.18-3.588,1.555-4.511,1.842-4.665h2.576c2.15,0,2.193,3.568,2.193,3.604l0.258-0.001
		c0.066,1.557,0.072,3.005,0.018,4.34H41.524z M27.125,15.462c0.296-2.232,1.565-9.516,5.45-9.516h5.091
		c0.406,0.189,2.634,1.452,3.559,6.32c-0.484-0.582-1.152-0.981-2.065-0.981h-2.682L36.32,11.31c-0.096,0.032-2.34,0.834-2.576,5.59
		c-0.23,4.617,0.52,7.505,2.227,8.587c0.276,0.177,1.422,0.342,2.465,0.342c0.611,0,1.188-0.057,1.531-0.202
		c0.442-0.185,0.829-0.481,1.167-0.858c-0.586,2.976-1.646,4.998-3.163,5.961c-0.299,0.149-2.226,0.438-4.078,0.438H33.89
		c-1.062,0-1.881-0.098-2.31-0.277c-2.485-1.043-4.483-5.381-4.549-9.876l-0.009-0.492h-0.148c-0.168-1.506-0.258-3.136,0.055-4.624
		h0.137L27.125,15.462z M26.109,15.897c-0.281,1.5-0.2,3.119-0.034,4.624H15.646v0.036h-2.744v-4.66h2.702h2.298
		C17.902,15.897,26.109,15.897,26.109,15.897z M1.075,15.422c0.378-7.544,3.457-9.258,3.926-9.476h5.093
		c2.117,0,3.453,2.166,4.283,4.497c-0.428-0.25-0.93-0.402-1.525-0.402H9.677l-0.158,0.025c-0.11,0.037-2.708,0.967-2.986,6.532
		c-0.271,5.431,0.602,8.823,2.594,10.084c0.303,0.194,1.66,0.388,2.887,0.388c0.705,0,1.366-0.063,1.758-0.229
		c0.324-0.136,0.617-0.336,0.894-0.563c-0.831,2.249-2.118,4.001-3.577,4.613c-0.428,0.178-1.248,0.277-2.31,0.277
		c-1.852,0-3.781-0.288-4.068-0.432C1.921,28.966,0.664,23.671,1.075,15.422z"/>
	<path style="fill:#010002;" d="M0,37.725h42.67v-4.5H0V37.725z M1,34.225h40.67v2.5H1V34.225z"/>
</g>
<g>
</g>
<g>
</g>
<g>
</g>
<g>
</g>
<g>
</g>
<g>
</g>
<g>
</g>
<g>
</g>
<g>
</g>
<g>
</g>
<g>
</g>
<g>
</g>
<g>
</g>
<g>
</g>
<g>
</g>
</svg>
