<?xml version="1.0" encoding="iso-8859-1"?>
<!-- Generator: Adobe Illustrator 18.1.1, SVG Export Plug-In . SVG Version: 6.00 Build 0)  -->
<svg version="1.1" id="Capa_1" xmlns="http://www.w3.org/2000/svg" xmlns:xlink="http://www.w3.org/1999/xlink" x="0px" y="0px"
	 viewBox="0 0 55.6 55.6" style="enable-background:new 0 0 55.6 55.6;" xml:space="preserve">
<g>
	<g>
		<circle style="fill:#010002;" cx="49.35" cy="43.123" r="6.25"/>
		<path style="fill:#010002;" d="M35.681,36.522h-15.12c-0.612,0-1.201,0.092-1.762,0.254V10.005c0-2.088-1.692-3.78-3.779-3.78
			c-2.088,0-3.78,1.692-3.78,3.78v33.26c-2.771,0-5.544,0-8.315,0c-3.9,0-3.9,6.048,0,6.048c5.598,0,11.196,0,16.794,0
			c0.276,0.037,0.557,0.062,0.843,0.062h15.121c3.547,0,6.424-2.877,6.424-6.425C42.104,39.401,39.227,36.522,35.681,36.522z"/>
	</g>
</g>
<g>
</g>
<g>
</g>
<g>
</g>
<g>
</g>
<g>
</g>
<g>
</g>
<g>
</g>
<g>
</g>
<g>
</g>
<g>
</g>
<g>
</g>
<g>
</g>
<g>
</g>
<g>
</g>
<g>
</g>
</svg>
